<?xml version="1.0" encoding="UTF-8" ?>
<!DOCTYPE svg PUBLIC "-//W3C//DTD SVG 1.1//EN" "http://www.w3.org/Graphics/SVG/1.1/DTD/svg11.dtd">
<svg width="150pt" height="150pt" viewBox="0 0 150 150" version="1.1" xmlns="http://www.w3.org/2000/svg">
<g id="#e5007fff">
<path fill="#e5007f" opacity="1.00" d=" M 108.44 0.00 L 108.46 0.00 C 112.92 13.53 122.06 25.35 133.89 33.25 C 138.99 36.73 144.57 39.42 150.00 42.34 L 150.00 42.67 C 146.54 43.39 143.23 44.67 139.87 45.74 C 116.59 53.30 93.41 61.13 70.09 68.58 C 70.14 66.77 70.28 64.90 71.33 63.36 C 83.78 42.29 96.06 21.11 108.44 0.00 Z" />
<path fill="#e5007f" opacity="1.00" d=" M 7.69 59.00 C 19.98 50.99 29.52 39.48 37.11 27.06 C 39.23 42.35 40.85 57.70 42.84 73.00 C 43.24 76.47 44.08 80.05 42.81 83.45 C 30.76 75.81 19.50 67.00 7.69 59.00 Z" />
<path fill="#e5007f" opacity="1.00" d=" M 0.44 99.31 C 12.58 96.53 24.67 93.53 36.88 91.10 C 38.54 90.62 40.14 91.37 41.68 91.89 C 32.75 104.72 24.07 117.76 14.60 130.20 C 12.23 119.04 7.78 108.15 0.44 99.31 Z" />
<path fill="#e5007f" opacity="1.00" d=" M 49.06 92.48 C 52.56 94.35 55.63 96.89 58.88 99.15 C 74.73 110.45 90.75 121.49 106.57 132.83 C 88.48 134.03 69.55 138.15 55.29 150.00 L 55.14 150.00 C 52.68 133.34 50.82 116.60 48.55 99.91 C 48.07 97.42 48.30 94.89 49.06 92.48 Z" />
</g>
<g id="#0097e0ff">
<path fill="#0097e0" opacity="1.00" d=" M 39.85 25.49 C 57.41 29.59 75.60 25.10 91.84 18.19 C 79.05 37.25 65.85 56.02 52.97 75.01 C 51.23 77.48 49.80 80.50 46.72 81.54 C 44.21 62.89 42.15 44.17 39.85 25.49 Z" />
<path fill="#0097e0" opacity="1.00" d=" M 6.64 61.15 C 16.91 68.64 27.03 76.32 37.43 83.63 C 38.91 84.58 39.96 86.02 40.98 87.43 C 38.21 88.80 35.09 89.09 32.13 89.86 C 21.47 92.36 10.77 94.71 0.01 96.79 C 6.34 86.10 6.04 73.16 6.64 61.15 Z" />
<path fill="#0097e0" opacity="1.00" d=" M 51.80 87.84 C 79.28 81.44 106.83 75.39 134.36 69.25 C 119.81 86.03 108.94 107.40 109.61 130.09 C 91.34 117.50 73.21 104.71 54.98 92.06 C 53.36 91.14 52.44 89.53 51.80 87.84 Z" />
<path fill="#0097e0" opacity="1.00" d=" M 39.32 99.28 C 40.89 97.10 42.14 94.25 45.08 93.72 C 47.72 112.41 49.55 131.21 52.12 149.91 C 41.85 141.20 29.69 134.02 16.10 132.41 C 23.83 121.37 31.60 110.34 39.32 99.28 Z" />
</g>
</svg>
