<?xml version="1.0" encoding="UTF-8" ?>
<!DOCTYPE svg PUBLIC "-//W3C//DTD SVG 1.1//EN" "http://www.w3.org/Graphics/SVG/1.1/DTD/svg11.dtd">
<svg width="125pt" height="149pt" viewBox="0 0 125 149" version="1.1" xmlns="http://www.w3.org/2000/svg">
<g id="#00a4deff">
<path fill="#00a4de" opacity="1.00" d=" M 55.17 3.10 C 58.17 0.93 62.26 -0.32 65.85 0.94 C 71.41 3.72 76.15 7.84 81.34 11.22 C 81.50 20.76 81.43 30.30 81.39 39.84 C 66.88 50.24 52.48 60.82 37.77 70.94 C 37.84 57.37 37.57 43.78 37.88 30.21 C 34.28 32.83 30.59 35.33 27.04 38.01 C 26.98 67.14 27.04 96.28 26.83 125.41 C 20.15 120.29 13.03 115.77 6.39 110.61 C 1.31 106.56 -0.39 99.55 0.52 93.30 L 0.00 87.57 L 0.00 67.53 C 0.22 62.62 0.66 52.81 0.88 47.90 C 1.89 42.39 6.21 38.52 10.80 35.78 C 25.44 24.69 40.54 14.21 55.17 3.10 Z" />
</g>
<g id="#8fbd1cff">
<path fill="#8fbd1c" opacity="1.00" d=" M 97.66 23.87 C 102.80 26.73 107.30 30.58 112.04 34.04 C 115.75 36.95 120.15 39.34 122.48 43.61 C 124.61 47.00 124.68 51.13 125.00 54.99 L 125.00 91.51 C 124.30 95.99 125.39 100.99 123.00 105.09 C 120.96 108.87 117.54 111.62 114.15 114.12 C 99.47 124.81 84.85 135.55 70.26 146.35 C 68.28 147.88 65.86 148.64 63.42 149.00 L 61.86 149.00 C 56.75 148.55 52.94 144.79 48.94 142.00 C 45.43 139.16 41.60 136.73 38.12 133.86 C 37.61 131.94 37.76 129.93 37.70 127.97 C 37.68 115.60 37.28 103.23 37.51 90.86 C 44.57 86.19 51.54 81.37 58.71 76.87 C 58.64 89.99 58.78 103.12 58.60 116.24 C 61.86 112.87 66.03 110.62 69.70 107.75 C 78.91 100.64 88.58 94.15 97.71 86.93 C 97.72 65.91 97.89 44.89 97.66 23.87 Z" />
</g>
</svg>
