<?xml version="1.0" encoding="UTF-8" ?>
<!DOCTYPE svg PUBLIC "-//W3C//DTD SVG 1.1//EN" "http://www.w3.org/Graphics/SVG/1.1/DTD/svg11.dtd">
<svg width="521pt" height="180pt" viewBox="0 0 521 180" version="1.1" xmlns="http://www.w3.org/2000/svg">
<g id="#0ca5e8ff">
<path fill="#0ca5e8" opacity="1.00" d=" M 63.42 19.39 C 66.78 16.58 71.47 14.41 75.84 15.96 C 81.41 18.71 86.12 22.86 91.33 26.21 C 91.48 35.78 91.45 45.35 91.36 54.92 C 76.84 65.30 62.34 75.69 47.83 86.08 C 47.71 76.06 47.77 66.03 47.75 56.00 C 47.76 52.91 47.49 49.77 48.34 46.75 C 47.39 46.28 46.38 45.94 45.38 45.57 L 46.41 46.35 C 43.23 48.46 40.15 50.71 37.06 52.94 C 36.96 82.09 36.96 111.25 36.86 140.40 C 30.48 135.60 23.81 131.19 17.41 126.42 C 13.16 123.37 10.42 118.28 10.50 113.02 C 10.51 97.68 10.49 82.34 10.51 67.00 C 10.50 62.44 12.10 57.69 15.60 54.62 C 31.40 42.70 47.62 31.32 63.42 19.39 Z" />
<path fill="#0ca5e8" opacity="1.00" d=" M 279.51 37.74 C 284.86 35.02 291.33 40.98 289.44 46.53 C 288.37 51.46 281.59 53.10 277.94 50.00 C 273.99 46.91 274.88 39.71 279.51 37.74 M 281.33 40.97 C 281.77 42.89 283.14 44.38 283.96 46.13 C 284.26 47.69 283.06 48.97 282.45 50.29 C 283.74 49.64 285.15 49.16 286.26 48.20 C 288.43 46.04 288.16 41.97 285.57 40.25 C 284.39 38.99 281.87 39.13 281.33 40.97 Z" />
<path fill="#0ca5e8" opacity="1.00" d=" M 348.06 36.43 C 351.05 37.30 354.05 38.19 357.04 39.08 C 356.49 40.94 355.94 42.80 355.39 44.66 C 358.81 44.38 362.24 44.49 365.66 44.60 C 365.12 47.57 364.58 50.54 364.04 53.51 C 359.60 51.67 353.13 53.55 352.34 58.84 C 351.22 62.25 353.31 65.26 355.90 67.23 C 356.10 68.44 356.30 69.65 356.50 70.86 C 353.33 72.17 350.21 73.55 347.08 74.94 C 346.52 71.62 345.97 68.30 345.42 64.99 C 342.91 68.12 340.53 71.35 338.21 74.63 C 335.55 72.70 332.84 70.83 330.13 68.96 C 333.75 64.35 337.76 60.07 341.93 55.97 C 339.41 56.55 336.89 57.18 334.41 57.92 C 333.40 54.76 332.51 51.57 331.66 48.37 C 336.46 47.50 341.25 46.61 346.05 45.73 C 346.62 42.61 347.29 39.51 348.06 36.43 Z" />
<path fill="#0ca5e8" opacity="1.00" d=" M 376.97 39.25 C 380.10 38.44 383.23 37.62 386.33 36.68 C 387.17 39.32 387.84 42.01 388.43 44.71 C 393.63 44.75 398.84 44.92 404.03 45.37 C 403.53 48.41 403.03 51.45 402.53 54.50 C 398.17 54.23 393.81 54.10 389.45 54.16 C 389.42 55.34 389.39 56.52 389.36 57.70 C 386.51 60.75 386.15 65.23 388.36 68.75 C 387.94 70.09 387.51 71.44 387.09 72.78 C 383.67 72.07 380.26 71.35 376.85 70.64 C 377.80 67.76 378.59 64.83 379.04 61.82 C 375.85 65.50 372.59 69.19 370.32 73.53 C 377.51 72.90 384.77 72.82 391.95 73.58 C 395.16 73.85 399.05 75.44 399.79 78.93 C 400.11 83.71 396.85 87.64 394.60 91.55 C 392.53 90.17 390.47 88.78 388.42 87.39 C 388.25 90.03 388.08 92.68 387.92 95.33 C 382.37 95.07 376.88 96.01 371.65 97.84 C 372.03 99.51 372.43 101.18 372.82 102.85 C 383.70 102.21 394.60 100.49 404.87 96.71 C 404.86 100.85 404.83 104.98 404.93 109.12 C 397.96 111.37 390.65 112.20 383.43 113.22 C 378.97 113.77 374.47 114.55 369.98 114.03 C 361.41 113.04 353.30 109.25 346.75 103.69 C 343.58 108.88 338.72 112.53 333.50 115.45 C 331.70 112.33 329.95 109.18 328.19 106.04 C 331.32 104.40 334.58 102.73 336.92 100.00 C 339.48 97.01 340.86 93.26 342.28 89.64 C 346.15 89.40 350.01 89.05 353.88 88.73 C 353.26 90.98 352.65 93.23 352.09 95.50 C 355.20 97.70 358.49 99.65 361.96 101.22 C 360.18 95.38 359.97 89.25 360.86 83.23 C 353.38 83.80 346.17 85.83 338.96 87.72 C 337.67 84.73 336.40 81.74 335.13 78.75 C 344.81 75.91 354.82 74.34 364.88 73.77 C 366.65 73.81 368.31 73.27 369.73 72.22 C 367.31 71.11 365.15 69.54 363.01 67.96 C 366.38 63.97 369.80 60.03 372.97 55.88 C 371.37 56.30 369.77 56.73 368.17 57.15 C 367.44 53.89 366.72 50.63 366.00 47.37 C 370.31 46.76 374.63 46.14 378.95 45.56 C 378.29 43.45 377.63 41.35 376.97 39.25 M 371.28 81.74 C 371.16 84.32 371.05 86.90 370.96 89.48 C 376.56 87.66 382.38 86.71 388.21 86.03 C 388.19 84.67 389.33 82.14 387.23 81.80 C 381.99 80.78 376.58 81.78 371.28 81.74 Z" />
<path fill="#0ca5e8" opacity="1.00" d=" M 190.37 62.16 C 195.74 55.55 198.59 47.41 200.53 39.22 C 204.38 39.94 208.25 40.58 212.12 41.24 C 210.86 45.52 209.52 49.78 208.13 54.02 C 217.10 51.61 226.27 49.99 235.50 49.04 C 235.13 52.69 234.76 56.34 234.33 59.99 C 227.93 60.47 221.61 61.67 215.31 62.87 C 216.53 64.95 215.24 67.19 214.81 69.29 C 220.63 67.86 226.55 66.84 232.52 66.29 C 232.31 69.88 232.08 73.47 231.87 77.06 C 225.18 77.37 218.62 78.75 212.16 80.44 C 211.99 82.97 211.92 85.51 211.91 88.05 C 218.75 86.52 225.62 85.12 232.52 83.91 C 232.30 87.50 232.07 91.09 231.86 94.68 C 225.64 95.41 219.51 96.70 213.43 98.18 C 214.29 101.76 215.29 105.31 216.41 108.82 C 212.65 110.69 208.90 112.58 205.14 114.45 C 199.80 99.70 198.04 83.40 202.37 68.17 C 199.22 69.15 198.03 72.64 196.00 74.94 C 194.29 73.56 192.58 72.18 190.87 70.81 C 190.03 80.05 191.30 90.53 185.42 98.40 C 182.15 103.07 176.25 104.50 170.93 105.22 C 171.64 102.15 172.37 99.09 173.09 96.02 C 170.48 97.74 167.88 99.46 165.27 101.17 C 160.58 90.06 160.57 77.79 161.29 65.96 C 161.70 58.68 163.93 51.66 166.94 45.07 C 169.41 46.98 171.88 48.89 174.34 50.81 C 177.60 48.40 182.36 45.93 186.03 48.98 C 190.25 52.00 189.86 57.59 190.37 62.16 M 174.40 62.85 C 173.93 62.15 173.47 61.45 173.01 60.74 C 172.65 62.88 172.39 65.04 172.17 67.19 C 170.34 68.84 168.04 70.45 167.64 73.07 C 167.07 76.73 168.80 80.42 171.80 82.52 C 172.10 85.94 172.81 89.30 173.82 92.58 C 178.59 91.92 179.28 86.97 179.96 83.10 C 182.93 81.51 185.21 78.58 184.60 75.02 C 185.06 71.37 182.37 68.77 179.60 66.95 C 179.79 64.30 179.83 61.55 178.17 59.32 C 176.87 60.45 175.62 61.63 174.40 62.85 Z" />
<path fill="#0ca5e8" opacity="1.00" d=" M 443.07 59.38 C 448.53 54.11 452.17 47.03 452.69 39.41 C 456.27 39.64 459.86 39.86 463.44 40.08 C 462.79 42.56 462.13 45.03 461.48 47.51 C 470.40 43.62 480.26 43.04 489.86 43.22 C 489.41 46.37 488.97 49.52 488.53 52.67 C 479.61 52.42 470.79 54.12 462.48 57.31 C 461.74 55.84 461.02 54.36 460.20 52.94 C 457.03 57.30 454.37 62.17 451.00 66.46 C 448.35 64.10 445.72 61.73 443.07 59.38 Z" />
<path fill="#0ca5e8" opacity="1.00" d=" M 431.98 44.99 C 437.01 44.19 442.10 43.89 447.18 43.56 C 446.92 47.06 446.65 50.56 446.36 54.06 C 442.03 54.14 437.70 54.45 433.39 54.85 C 433.05 58.27 432.65 61.69 432.07 65.09 C 435.19 63.85 438.36 62.00 441.83 62.35 C 445.74 63.10 447.43 67.47 447.44 71.04 C 447.60 79.28 444.64 87.14 441.72 94.71 C 438.30 103.64 429.91 109.21 421.96 113.79 C 419.80 110.32 417.65 106.84 415.51 103.36 C 420.09 101.08 424.36 98.21 428.20 94.81 C 431.46 94.55 435.26 94.11 437.26 91.14 C 439.80 87.25 439.80 81.55 436.44 78.12 C 436.50 76.39 436.55 74.66 436.59 72.93 C 433.24 73.44 430.48 75.68 427.06 75.92 C 423.00 76.23 420.62 80.21 420.09 83.88 C 420.00 86.40 421.52 89.14 419.67 91.35 C 417.12 88.60 414.67 85.76 412.19 82.94 C 419.29 77.34 423.15 68.34 422.46 59.34 C 421.01 60.21 419.58 61.10 418.15 61.98 C 416.69 58.44 415.24 54.89 413.81 51.34 C 419.65 48.69 425.57 45.92 431.98 44.99 Z" />
<path fill="#0ca5e8" opacity="1.00" d=" M 290.14 51.19 C 291.42 49.62 291.89 47.57 292.67 45.72 C 301.74 45.51 310.80 45.76 319.85 46.21 C 319.35 49.75 318.85 53.28 318.39 56.83 C 307.24 56.02 296.05 55.86 284.89 56.52 C 286.64 57.14 288.39 57.75 290.15 58.35 C 289.50 60.44 288.84 62.52 288.18 64.60 C 294.99 61.91 302.74 59.18 309.97 61.99 C 313.17 63.13 314.55 66.82 314.11 69.99 C 313.04 79.44 307.79 87.66 302.03 94.96 C 307.29 98.98 313.54 101.33 319.68 103.67 C 317.74 107.44 315.80 111.20 313.86 114.96 C 306.68 111.67 299.68 107.87 293.43 103.01 C 286.98 107.66 279.92 111.30 272.70 114.62 C 270.88 110.97 269.06 107.32 267.24 103.68 C 273.47 101.51 279.68 99.04 285.02 95.10 C 282.53 91.86 280.09 88.58 277.85 85.16 C 276.11 87.77 274.17 90.23 272.08 92.56 C 269.95 90.06 267.84 87.54 265.70 85.05 C 264.26 93.76 265.41 102.60 267.37 111.13 C 263.71 112.58 260.05 114.03 256.39 115.46 C 253.65 106.65 253.31 97.23 254.05 88.09 C 252.52 89.46 250.99 90.83 249.45 92.19 C 247.31 88.93 245.14 85.68 243.00 82.42 C 251.38 76.82 257.44 68.35 260.76 58.90 C 256.55 59.83 252.31 60.64 248.10 61.60 C 247.14 58.07 246.13 54.55 245.14 51.03 C 254.32 49.25 263.63 48.15 272.94 47.23 C 274.29 49.59 275.18 52.82 278.06 53.74 C 282.12 54.86 287.10 54.38 290.14 51.19 M 267.91 58.06 C 269.32 58.53 270.74 59.00 272.16 59.46 C 270.13 64.92 267.75 70.24 264.75 75.24 C 265.85 75.53 266.94 75.83 268.04 76.12 C 267.50 77.83 266.97 79.54 266.49 81.27 C 272.80 74.45 277.34 65.94 279.36 56.86 C 275.54 57.24 271.72 57.62 267.91 58.06 M 285.73 82.34 C 286.89 85.63 290.47 86.61 293.46 87.46 C 296.40 86.45 299.92 85.11 300.42 81.58 C 300.66 78.17 301.51 74.89 302.37 71.60 C 297.33 72.56 291.72 70.09 287.33 73.57 C 286.82 72.58 286.31 71.59 285.80 70.61 C 283.40 74.26 284.85 78.46 285.73 82.34 Z" />
<path fill="#0ca5e8" opacity="1.00" d=" M 357.31 55.35 C 360.06 54.15 363.95 55.07 364.95 58.17 C 366.28 61.02 364.74 65.91 361.10 65.95 C 359.23 66.03 356.92 65.97 355.68 64.34 C 353.71 61.64 354.28 57.02 357.31 55.35 M 358.83 59.01 C 360.49 60.77 360.62 62.83 359.27 64.78 C 360.60 64.08 362.84 64.24 363.25 62.47 C 363.72 60.67 363.30 58.43 361.61 57.40 C 360.58 56.13 357.36 57.51 358.83 59.01 Z" />
<path fill="#0ca5e8" opacity="1.00" d=" M 454.83 62.30 C 462.59 58.00 471.60 55.22 480.53 56.65 C 482.97 56.96 484.09 59.83 483.24 61.96 C 481.75 66.09 478.56 69.28 475.94 72.70 C 479.58 72.11 483.70 70.64 487.15 72.72 C 489.35 73.93 490.03 76.56 490.03 78.90 C 490.51 92.38 484.93 105.48 476.25 115.61 C 473.65 113.14 471.07 110.67 468.49 108.19 C 475.44 102.05 479.25 93.05 480.08 83.95 C 480.00 80.88 476.74 81.61 474.74 82.16 C 474.33 94.82 468.48 107.09 458.98 115.45 C 456.71 112.81 454.46 110.15 452.18 107.52 C 456.24 104.20 460.55 100.80 462.96 96.02 C 464.70 92.17 465.25 87.91 465.92 83.78 C 465.33 84.04 464.13 84.55 463.54 84.81 C 461.98 87.90 460.95 91.23 459.25 94.25 C 456.67 99.19 452.71 103.21 448.56 106.86 C 446.67 104.00 444.80 101.13 442.92 98.27 C 447.62 95.36 451.60 91.19 453.27 85.82 C 451.33 84.74 449.19 82.81 450.37 80.35 C 452.28 76.94 456.12 75.34 459.39 73.51 C 462.70 71.63 466.97 70.41 468.45 66.50 C 464.36 66.58 460.79 68.75 457.27 70.57 C 456.47 67.81 455.64 65.06 454.83 62.30 Z" />
<path fill="#0ca5e8" opacity="1.00" d=" M 393.15 58.21 C 397.73 56.02 403.28 60.83 401.54 65.63 C 400.70 69.30 396.60 71.53 393.08 70.10 C 388.06 68.32 388.10 59.90 393.15 58.21 M 395.93 65.21 C 396.90 66.54 395.28 67.98 395.05 69.32 C 397.11 68.48 399.46 67.43 399.67 64.90 C 400.81 62.12 398.06 58.95 395.18 60.15 C 393.02 61.37 395.43 63.65 395.93 65.21 Z" />
<path fill="#0ca5e8" opacity="1.00" d=" M 174.25 69.23 C 177.39 68.10 181.39 69.58 182.23 73.01 C 183.88 77.72 178.98 83.18 174.09 81.32 C 168.62 79.79 168.67 70.55 174.25 69.23 M 174.97 72.17 C 175.62 74.91 178.42 77.56 176.01 80.32 C 178.32 79.37 180.91 77.92 180.55 74.97 C 181.15 72.07 176.63 69.33 174.97 72.17 Z" />
<path fill="#0ca5e8" opacity="1.00" d=" M 290.34 74.41 C 294.21 71.96 300.37 76.49 298.17 80.97 C 297.44 85.52 290.68 86.02 288.36 82.61 C 287.10 79.96 287.19 75.68 290.34 74.41 M 291.62 76.91 C 292.45 79.14 294.20 81.28 292.34 83.59 C 293.70 83.20 294.96 82.62 296.13 81.86 C 297.11 79.76 296.37 76.64 294.02 75.83 C 293.14 75.57 291.46 75.58 291.62 76.91 Z" />
<path fill="#0ca5e8" opacity="1.00" d=" M 426.40 78.50 C 431.88 75.50 438.76 81.87 436.40 87.57 C 435.13 92.19 428.75 93.96 425.20 90.83 C 421.21 87.80 421.81 80.66 426.40 78.50 M 429.30 80.40 C 427.01 81.36 429.45 83.59 430.11 84.92 C 431.92 86.76 430.55 89.17 429.58 91.04 C 431.72 90.01 434.86 89.02 434.58 86.03 C 435.02 83.17 432.53 79.04 429.30 80.40 Z" />
</g>
<g id="#8fbd1cff">
<path fill="#8fbd1c" opacity="1.00" d=" M 107.71 38.67 C 114.61 43.22 121.08 48.38 127.73 53.28 C 132.02 56.44 134.79 61.63 134.68 67.00 C 134.58 82.65 134.67 98.29 134.61 113.94 C 134.60 120.11 129.93 124.84 125.29 128.27 C 110.47 139.12 95.63 149.94 80.89 160.89 C 78.36 162.87 75.21 164.16 71.95 163.94 C 67.28 163.78 63.72 160.39 60.09 157.86 C 56.20 154.74 51.97 152.04 48.15 148.84 C 47.25 142.96 47.86 136.94 47.59 131.00 C 47.71 122.65 46.97 114.18 47.73 105.91 C 54.50 100.91 61.71 96.51 68.69 91.81 C 68.67 104.80 68.76 117.80 68.62 130.79 C 81.65 121.18 94.86 111.78 107.71 101.92 C 107.76 80.84 107.82 59.75 107.71 38.67 Z" />
<path fill="#8fbd1c" opacity="1.00" d=" M 249.52 134.22 C 254.31 133.76 259.17 134.00 263.98 134.06 C 265.81 133.84 266.85 136.33 265.50 137.55 C 260.80 143.66 255.83 149.57 251.06 155.63 C 256.82 155.71 262.59 155.43 268.34 155.84 C 268.13 156.32 267.71 157.29 267.50 157.78 C 261.99 158.25 256.42 157.97 250.89 157.95 C 248.81 158.37 247.52 155.65 249.19 154.28 C 253.82 148.21 258.76 142.38 263.46 136.37 C 258.52 136.31 253.58 136.53 248.65 136.16 C 248.87 135.67 249.30 134.70 249.52 134.22 Z" />
<path fill="#8fbd1c" opacity="1.00" d=" M 160.29 141.17 C 160.73 141.00 161.60 140.65 162.03 140.48 C 164.28 144.93 164.86 150.01 167.10 154.47 C 168.28 150.03 169.18 145.53 170.35 141.10 C 170.93 141.12 172.09 141.18 172.67 141.20 C 173.94 145.82 175.01 150.48 176.22 155.11 C 177.89 150.31 179.05 145.32 181.02 140.63 C 181.49 140.72 182.44 140.89 182.91 140.98 C 181.64 146.36 179.79 151.62 177.93 156.82 C 177.53 158.50 174.71 158.34 174.36 156.69 C 173.12 153.05 172.51 149.23 171.52 145.52 C 170.53 149.25 169.94 153.08 168.78 156.77 C 168.53 158.48 165.54 158.39 165.22 156.74 C 163.39 151.62 161.61 146.44 160.29 141.17 Z" />
<path fill="#8fbd1c" opacity="1.00" d=" M 189.30 141.17 C 189.72 140.99 190.57 140.64 190.99 140.46 C 193.25 145.10 194.22 150.24 195.99 155.08 C 197.23 150.54 197.91 145.84 199.40 141.38 C 199.95 141.28 201.05 141.08 201.60 140.98 C 202.91 145.66 203.99 150.41 205.23 155.12 C 206.88 150.33 208.05 145.37 209.98 140.68 C 210.46 140.77 211.43 140.93 211.91 141.01 C 210.62 146.39 208.78 151.65 206.91 156.85 C 206.49 158.49 203.80 158.34 203.38 156.74 C 202.12 153.09 201.51 149.25 200.52 145.51 C 199.52 149.26 198.94 153.12 197.76 156.82 C 197.38 158.52 194.59 158.38 194.23 156.73 C 192.39 151.62 190.60 146.44 189.30 141.17 Z" />
<path fill="#8fbd1c" opacity="1.00" d=" M 218.30 141.08 C 218.73 140.94 219.61 140.65 220.05 140.51 C 222.22 145.17 223.25 150.26 225.00 155.08 C 226.23 150.53 226.91 145.82 228.42 141.35 C 228.97 141.26 230.07 141.09 230.62 141.01 C 231.91 145.69 233.00 150.43 234.22 155.13 C 235.88 150.33 237.05 145.35 239.00 140.65 C 239.48 140.73 240.43 140.90 240.91 140.98 C 239.63 146.37 237.79 151.64 235.91 156.84 C 235.52 158.50 232.74 158.33 232.37 156.71 C 231.12 153.11 230.54 149.32 229.55 145.64 C 228.48 149.31 227.92 153.11 226.79 156.76 C 226.53 158.45 223.54 158.42 223.23 156.75 C 221.39 151.60 219.57 146.40 218.30 141.08 Z" />
<path fill="#8fbd1c" opacity="1.00" d=" M 276.55 141.56 C 278.93 140.68 281.57 140.95 284.06 141.06 C 288.22 140.98 290.01 147.46 286.77 149.70 C 283.25 150.67 279.36 149.05 276.00 150.76 C 276.27 151.78 276.82 153.81 277.10 154.83 C 279.53 156.10 282.59 155.87 285.18 155.21 C 286.09 153.89 285.99 151.43 288.17 151.67 C 288.65 153.89 288.19 156.83 285.68 157.56 C 282.77 158.21 279.52 158.40 276.69 157.33 C 273.58 155.77 273.99 151.87 273.95 148.97 C 274.00 146.38 273.75 142.87 276.55 141.56 M 278.36 143.51 C 275.84 143.63 276.75 146.96 275.94 148.50 C 279.24 147.38 282.74 147.59 286.16 147.61 C 285.75 146.26 286.35 144.06 284.60 143.56 C 282.54 143.19 280.41 143.23 278.36 143.51 Z" />
<path fill="#8fbd1c" opacity="1.00" d=" M 295.18 142.08 C 295.41 141.68 295.87 140.90 296.10 140.51 C 296.81 141.23 297.53 141.96 298.27 142.67 L 298.31 140.94 C 300.43 141.33 304.01 139.89 304.34 143.11 C 301.93 143.50 299.46 143.50 297.15 142.61 C 297.31 147.72 297.69 152.88 297.03 157.97 C 296.58 157.91 295.67 157.81 295.22 157.76 C 294.84 152.55 294.85 147.28 295.18 142.08 Z" />
<path fill="#8fbd1c" opacity="1.00" d=" M 313.32 141.31 C 315.52 140.78 317.84 140.90 320.08 141.10 C 322.31 141.21 324.02 143.84 323.03 145.90 C 321.29 146.86 321.17 143.96 319.86 143.51 C 317.83 143.21 315.69 143.16 313.70 143.71 C 313.47 144.77 313.29 145.84 313.16 146.92 C 315.80 147.76 318.56 148.10 321.22 148.88 C 325.22 150.00 324.97 157.03 320.91 157.85 C 318.41 158.12 315.81 158.24 313.35 157.66 C 311.39 156.97 310.80 154.72 311.08 152.86 C 313.43 151.96 313.07 155.58 315.08 155.57 C 317.28 155.53 322.01 156.78 321.68 153.18 C 321.88 150.90 319.10 151.02 317.58 150.60 C 315.40 150.03 312.45 150.08 311.34 147.72 C 310.57 145.53 310.79 142.25 313.32 141.31 Z" />
<path fill="#8fbd1c" opacity="1.00" d=" M 331.18 141.55 C 331.66 141.34 332.62 140.91 333.10 140.69 C 333.67 145.32 332.92 150.03 333.63 154.64 C 335.66 156.70 339.40 154.65 341.60 156.86 C 338.59 158.66 332.51 159.10 331.26 154.92 C 330.79 150.50 330.88 145.99 331.18 141.55 Z" />
<path fill="#8fbd1c" opacity="1.00" d=" M 341.89 140.69 C 342.37 140.91 343.34 141.35 343.83 141.57 C 344.13 146.85 344.14 152.19 343.81 157.46 C 343.34 157.67 342.38 158.09 341.91 158.30 C 341.53 152.44 341.53 146.55 341.89 140.69 Z" />
<path fill="#8fbd1c" opacity="1.00" d=" M 353.41 144.34 C 355.02 140.10 360.39 140.84 364.00 141.19 C 367.04 141.76 367.82 145.38 367.13 147.98 C 363.71 148.99 366.14 143.29 362.95 143.43 C 360.42 143.38 355.72 142.43 355.44 146.10 C 355.36 148.98 354.77 152.18 356.11 154.86 C 358.11 156.15 360.71 155.64 362.96 155.52 C 365.96 155.31 363.91 150.43 367.27 150.63 C 367.57 153.36 367.26 157.12 363.96 157.77 C 360.41 158.13 354.95 159.04 353.42 154.73 C 352.75 151.34 352.72 147.73 353.41 144.34 Z" />
<path fill="#8fbd1c" opacity="1.00" d=" M 375.19 141.53 C 375.67 141.32 376.63 140.91 377.12 140.70 C 377.45 146.56 377.47 152.44 377.12 158.30 C 376.65 158.10 375.70 157.69 375.23 157.49 C 374.81 152.20 374.88 146.83 375.19 141.53 Z" />
<path fill="#8fbd1c" opacity="1.00" d=" M 377.64 143.10 C 377.98 140.22 381.10 141.04 383.13 140.98 C 385.54 140.77 387.99 142.48 388.16 145.00 C 388.54 149.42 388.38 153.87 388.11 158.30 C 387.64 158.09 386.69 157.68 386.22 157.48 C 385.49 153.13 386.63 148.63 385.57 144.33 C 383.40 142.58 380.21 143.67 377.64 143.10 Z" />
<path fill="#8fbd1c" opacity="1.00" d=" M 243.62 154.65 C 245.13 152.48 248.51 155.87 246.34 157.39 C 244.75 159.41 241.59 156.23 243.62 154.65 Z" />
<path fill="#8fbd1c" opacity="1.00" d=" M 347.62 154.58 C 349.31 152.64 352.35 155.74 350.38 157.36 C 348.79 159.43 345.59 156.26 347.62 154.58 Z" />
</g>
</svg>
